<?xml version="1.0" standalone="no"?>
<!DOCTYPE svg PUBLIC "-//W3C//DTD SVG 20010904//EN"
 "http://www.w3.org/TR/2001/REC-SVG-20010904/DTD/svg10.dtd">
<svg version="1.0" xmlns="http://www.w3.org/2000/svg"
 width="16.000000pt" height="16.000000pt" viewBox="0 0 16.000000 16.000000"
 preserveAspectRatio="xMidYMid meet">
<metadata>
Created by potrace 1.11, written by Peter Selinger 2001-2013
</metadata>
<g transform="translate(0.000000,16.000000) scale(0.003125,-0.003125)"
fill="#000000" stroke="none">
<path d="M792 4579 c-131 -25 -227 -125 -252 -260 -7 -37 -9 -644 -8 -1795 3
-1667 4 -1741 22 -1787 25 -66 104 -149 168 -178 l53 -24 1785 0 1785 0 56 26
c71 33 125 87 158 158 l26 56 0 1785 0 1785 -22 47 c-45 98 -135 167 -243 188
-65 12 -3465 12 -3528 -1z m1975 -560 c290 -32 542 -156 706 -347 68 -80 148
-230 176 -332 67 -240 43 -523 -60 -720 -105 -200 -293 -350 -539 -429 -174
-56 -241 -63 -637 -68 l-363 -5 -2 -512 -3 -511 -307 -3 -308 -2 0 1470 0
1470 620 0 c375 0 659 -4 717 -11z"/>
<path d="M2050 3074 l0 -456 328 5 c345 5 386 9 484 56 75 36 150 123 178 206
39 117 30 291 -20 399 -29 62 -112 150 -173 185 -98 56 -139 61 -484 61 l-313
0 0 -456z"/>
</g>
</svg>
